# xmcd
#
# Track frame offsets:
#	150
#	57140
#	86052
#	156400
#	176307
#	218110
#	265222
#
# Disc length: 4091 seconds
#
# Revision: 6
# Processed by: cddbd v1.5.2PL0 Copyright (c) Steve Scherf et al.
# Submitted via: EasyCDDAExtractor 7.0.0.1
#
DISCID=5a0ff907
DTITLE=BERLIOZ Hector - Symphonie fantastique
DYEAR=1995
DGENRE=Classique
TTITLE0=Symphonie fantastique op.14 'Rêveries passions' (1973)
TTITLE1=Symphonie fantastique op.14 'Un bal' (1973)
TTITLE2=Symphonie fantastique op.14 'Scène aux champs' (1973)
TTITLE3=Symphonie fantastique op.14 'Marche au supplice' (1973)
TTITLE4=Symphonie fantastique op.14 'Songe d'une nuit de sabbat' (1973)
TTITLE5=Benvenuto Cellini op.23 (Ouverture) (1973)
TTITLE6=Le carnival romain op.9 (Ouverture) (1982)
EXTD=
EXTT0=
EXTT1=
EXTT2=
EXTT3=
EXTT4=
EXTT5=
EXTT6=
PLAYORDER=
